<?xml version="1.0" encoding="utf-8"?>
<!-- Generator: Adobe Illustrator 22.0.0, SVG Export Plug-In . SVG Version: 6.00 Build 0)  -->
<svg version="1.1" id="Layer_1" xmlns="http://www.w3.org/2000/svg" xmlns:xlink="http://www.w3.org/1999/xlink" x="0px" y="0px"
	 viewBox="0 0 712 798" style="enable-background:new 0 0 712 798;" xml:space="preserve">
<style type="text/css">
	.st0{clip-path:url(#SVGID_2_);}
	.st1{fill:#222740;}
	.st2{fill:#EEA558;}
	.st3{fill:none;stroke:#FFFFFF;}
	.st4{fill:#2E3192;}
	.st5{fill:#5E94FA;stroke:#5E94FA;}
	.st6{fill:#E85661;}
	.st7{fill:#FFFFFF;}
	.st8{opacity:0.33;fill:#5E94FA;enable-background:new    ;}
	.st9{fill:none;stroke:#5E94FA;stroke-miterlimit:10;}
	.st10{fill:none;stroke:#FFFFFF;stroke-miterlimit:10;}
	.st11{fill:none;stroke:#ECEEF7;stroke-miterlimit:10;}
	.st12{fill:none;stroke:#5E94FA;stroke-width:2;stroke-miterlimit:10;}
	.st13{fill:none;stroke:#E5E8F4;stroke-miterlimit:10;}
	.st14{fill:#5E94FA;}
	.st15{fill:none;}
	.st16{fill:none;stroke:#5E94FA;}
	.st17{opacity:0.37;fill:#5E94FA;enable-background:new    ;}
	.st18{opacity:0.25;}
</style>
<g>
	<defs>
		<rect id="SVGID_1_" width="712" height="798"/>
	</defs>
	<clipPath id="SVGID_2_">
		<use xlink:href="#SVGID_1_"  style="overflow:visible;"/>
	</clipPath>
	<g id="Artboard_1" class="st0">
		<path id="Path_635" class="st1" d="M69,122.3c103.7,78.5,88.2,138.5,13,286.2S135.5,799.2,255.4,830s183.6-6.2,252.9,0
			s107,70.8,175.1,49.2S766,830,766,830V0H11.1C11.1,0-34.7,43.8,69,122.3z"/>
		<circle id="Ellipse_226" class="st2" cx="341.5" cy="446.6" r="49"/>
		<g id="Ellipse_227" transform="matrix(0.799, 0.602, -0.602, 0.799, 566.542, 370.427)">
			<ellipse transform="matrix(2.551619e-06 1 -1 2.551619e-06 53.4999 -21.5)" class="st2" cx="37.5" cy="16" rx="16" ry="37.5"/>
			<ellipse transform="matrix(2.551619e-06 1 -1 2.551619e-06 53.4999 -21.5)" class="st3" cx="37.5" cy="16" rx="15.5" ry="37"/>
		</g>
		<circle id="Ellipse_225" class="st4" cx="197.5" cy="394.5" r="34.5"/>
		<path id="Path_644" class="st5" d="M404.3,530.6c15.4-10,31.2-16.7,47.4-20c8.5-1.9,17.4-1.3,25.6,1.6c5.9,2.1,10.9,6.1,14.2,11.4
			c5.6,8.6,5.6,19.1,0.1,31.3c-1.7,3.7-2.1,6.1-1.4,7.2c0.7,1,3.5,1.6,8.4,1.7c6.9,0.2,13.7,2.1,19.8,5.5c6,3.2,11.2,7.9,14.9,13.6
			c5.5,8.5,7.8,18.8,6.9,30.8c-1.6,21.4-14.2,39.8-37.8,55.2c-16.3,10.6-32.7,17.1-49.1,19.6c-11.1,1.6-21.4,0.5-30.7-3.3
			c-7.2-2.9-13.2-8.1-17.3-14.7c-6.1-9.4-6.8-20.1-2.1-31.9c1.7-4.4,2.2-7.2,1.4-8.4c-0.6-1-3.2-1.8-7.7-2.7
			c-11.3-2.1-19.9-7.9-26-17.2c-8.4-12.9-8.6-27.3-0.7-43.4C377.1,553,388.4,540.9,404.3,530.6z M422.5,547.7
			c-3,1.8-5.2,4.5-6.5,7.7c-1.1,2.7-0.9,5.7,0.7,8.2c2.5,3.8,7.6,5.9,15.5,6.3c8.8,0.5,15-0.4,18.8-2.8c1.9-1.2,2.8-3.6,2.7-7.2
			c-0.2-3.6-1.3-7.2-3.3-10.2c-2.8-4.3-6.6-6.6-11.2-6.7C433.2,542.7,427.3,544.4,422.5,547.7z M438.8,630c-1.7,1.1-2.6,3-2.5,5
			c0.1,2.5,1,5,2.5,7.1c2.2,3.2,5,5.9,8.3,7.9c3.3,2.3,7,3.9,10.9,4.8c8.5,2,17.3,0.3,24.5-4.5c4.5-2.9,7.4-6.2,8.8-9.9
			c1.4-3.4,1-7.3-1.1-10.4c-2.1-3.4-5.5-5.7-9.5-6.3c-4-0.6-11.3-0.2-21.9,1.3C448.7,626.2,442,628,438.8,630z"/>
		<path id="Path_643" class="st6" d="M543.6,122.7c13.3,8.1,24.3,19.5,31.9,33.1c9.8,17.8,8.9,36-2.8,54.7
			c-9.5,15.1-24.3,28-44.5,38.5c-22.4,11.7-44.4,18.3-66,20c-5,0.3-8.8-0.3-11.2-1.8c-4.2-2.6-8.5-7.8-12.9-15.5
			c-4.4-7.7-5.9-12.7-4.5-14.9c0.9-1.5,4.2-2.2,10-2.4c7.5-0.3,14.9-2.1,21.6-5.5c6.7-3.2,11.1-6.4,13.1-9.7
			c1.6-2.6,1.1-4.8-1.7-6.5c-1-0.6-3.4-1.9-7.4-3.8c-1-0.5-2-1.1-3-1.7c-11.1-6.9-17.9-15.6-20.7-26.2c-2.1-8.1-2.4-16.5-0.9-24.7
			c1.4-8.5,4.6-16.7,9.1-24c9.2-14.8,22-22.7,38.3-23.7C509.4,107.4,526.6,112.1,543.6,122.7z M523.7,151.5
			c-2.9-1.9-6.6-2.2-9.8-0.9c-3.7,1.3-6.8,3.9-8.8,7.3c-4.4,7.1-6.6,14.3-6.3,21.6c0.2,7.3,2.7,12.4,7.5,15.4
			c2.6,1.7,5.9,2.2,8.8,1.2c3.3-1.1,6-3.4,7.7-6.4c2.6-4.4,4.5-9.2,5.6-14.2c1.4-5.7,1.8-10.4,1.3-14.1
			C529.3,157.4,527.1,153.7,523.7,151.5z"/>
		<path id="Path_645" class="st2" d="M211.8,348l7.7,33.9c0.1,0.4,0,0.9-0.2,1.2c-0.4,0.5-1,0.9-1.6,1.2c-1.6,1-3.4,1.7-5.3,2.1
			c-1.8,0.3-2.8,0.2-3.2-0.4c-0.1-0.2-0.2-0.4-0.2-0.7l-1.3-21.6c0-1.1-0.2-2.1-0.6-3.1c-0.4-0.6-1-0.8-1.8-0.6
			c-1.5,0.5-2.9,1.2-4.2,2.1c-1.7,0.9-3.3,2.1-4.7,3.4c-0.4,0.4-0.6,1-0.6,1.6c0,0.7-0.2,1.3-0.4,1.9c-0.3,0.5-0.7,0.9-1.2,1.1
			c-1,0.6-2.2,0.7-3.2,0.1c-1.3-0.8-2.4-1.9-3.1-3.3c-1.1-1.7-1.8-3.7-2-5.8c0-0.8,0.1-1.7,0.4-2.5c0.2-0.7,0.6-1.2,1.2-1.6
			c0.9-0.3,1.8-0.5,2.8-0.6c1.1-0.2,2.2-0.6,3.1-1.3l14.8-8.9c1.5-0.9,2.5-0.8,3.2,0.3C211.5,347.2,211.7,347.6,211.8,348z"/>
		<path id="Path_646" class="st7" d="M135.8,45.2l16.4-9.8c0.4-0.3,1-0.5,1.5-0.4c0.5,0.3,1,0.8,1.2,1.3c0.6,1,1.1,2.2,1.3,3.4
			c0.2,1.1,0.2,2.2,0,3.3c-0.2,0.8-0.7,1.4-1.4,1.8l-10.4,6.3c-1.2,0.7-1.5,1.5-0.9,2.4c0.2,0.3,0.5,0.6,0.9,0.6
			c0.7-0.1,1.4-0.4,2-0.7c3.2-1.6,6.6-2.6,10.1-3c2.2-0.3,4.4,0.1,6.4,1c1.4,0.6,2.6,1.7,3.4,3c1.3,2.4,1.6,5.2,0.9,7.8
			c-0.6,2.6-1.9,5-3.6,7c-2,2.4-4.4,4.4-7,5.9c-2.1,1.3-4.3,2.2-6.7,2.8c-2,0.5-3.4,0.1-4.1-1.1c-0.4-0.6-0.7-1.3-0.8-2.1
			c-0.1-0.7,0.1-1.1,0.4-1.3c0.2-0.1,0.5-0.2,0.8-0.3c0.9-0.2,1.7-0.5,2.6-0.9c0.8-0.3,1.6-0.6,2.3-1.1c1.1-0.6,2.1-1.6,2.6-2.7
			c0.5-0.9,0.4-2.1-0.1-2.9c-0.8-1.2-2.2-1.9-3.6-1.7c-1.9,0-3.8,0.5-5.6,1.2c-1.7,0.7-2.8,1.1-3.1,1.2c-0.4,0.1-0.7,0.2-1.1,0.2
			c-0.7,0-1.3-0.3-1.7-0.9c-0.8-1.8-1.5-3.6-1.9-5.5c-0.7-2.8-1.3-5.6-1.8-8.5c-0.3-1.4-0.4-2.9-0.4-4.4
			C134.5,46.3,135,45.6,135.8,45.2z"/>
		<path id="Path_647" class="st8" d="M209.7,637.3c0.1-0.1,0.5-0.3,1.1-0.5c0.2-0.1,0.4-0.2,0.6-0.3c0.9-0.5,1-1.5,0.3-3
			c-0.4-0.8-1.7-3.1-3.9-6.8c-0.2-0.4-0.6-0.8-1-1c-0.5,0-1,0.1-1.4,0.4c-0.2,0.1-0.4,0.3-0.6,0.4c-0.2,0.1-0.4,0.3-0.5,0.4
			c-0.3,0.2-0.7,0.3-1,0.2c-0.3-0.1-0.6-0.3-0.8-0.6c-0.2-0.4-0.2-0.9-0.1-1.3c0.2-0.6,0.5-1.2,0.9-1.7c2.2-3,5-5.6,8.2-7.5
			c0.6-0.4,1.4-0.7,2.1-0.9c0.5-0.1,1,0.2,1.2,0.6c0.2,0.2,0.2,0.5,0.2,0.7c-0.1,0.4-0.3,0.7-0.5,1c-0.5,0.7-0.6,1.2-0.5,1.7
			c0.8,1.7,1.7,3.3,2.6,4.8c1.7,2.7,2.7,4.2,2.8,4.4c0.2,0.3,0.4,0.5,0.6,0.7c0.3,0.4,0.8,0.7,1.4,0.7c0.7-0.1,1.4-0.3,2-0.7
			c1-0.5,1.7-0.4,2.2,0.3c0.5,0.8,0.1,1.7-1.1,2.8c-1.7,1.5-3.6,2.9-5.6,4.1c-1.3,0.8-2.6,1.4-3.9,2c-1.3,0.6-2.6,1-3.9,1.3
			c-1,0.2-1.6,0-2-0.6c-0.2-0.3-0.2-0.7-0.1-1C209.1,637.8,209.4,637.5,209.7,637.3z M226.4,607c1.4-0.9,3-1.3,4.7-1.4
			c2.3-0.1,4.6,0.5,6.5,1.8c1.5,0.9,2.7,2.2,3.6,3.7c1.6,2.6,2,5.8,0.9,8.7c-0.8,2.2-2.3,4.1-4.3,5.4c-2.1,1.4-4.7,1.8-7.2,1.3
			c-3-0.7-5.6-2.6-7.1-5.4c-1.7-2.4-2.2-5.5-1.5-8.4C222.6,610.3,224.2,608.3,226.4,607z M228.8,611.9c-1,0.6-1,1.7,0,3.3
			c1.2,2,2.8,3.7,4.7,5c0.5,0.5,1.3,0.5,1.9,0.2c0.9-0.6,0.9-1.7-0.1-3.3c-0.6-1-1.3-1.9-2.1-2.8c-0.7-0.8-1.5-1.5-2.3-2.1
			C230.3,611.7,229.5,611.6,228.8,611.9z M249.4,607.7l-0.8,0.5c-1.2,0.7-2.2,1.4-3,1.9c-0.1,0.1-0.2,0.2-0.3,0.2
			c-0.2,0.1-0.4,0.2-0.6,0.1c-0.2,0-0.4-0.1-0.5-0.3c-0.2-0.5-0.3-0.9-0.4-1.4c-0.1-0.6-0.2-1.1-0.3-1.7c-0.1-0.5,0.2-1,0.6-1.3
			c0.2-0.1,0.3-0.2,0.5-0.2c1.2-0.6,1.9-0.9,2.2-1.1l0.4-0.3c0.4-0.2,0.6-0.7,0.5-1.1c0-0.1-0.1-0.2-0.1-0.2l-0.6-1
			c-0.4-0.7-0.9-1.4-1.5-2c-0.1-0.1-0.2-0.2-0.2-0.3c-0.2-0.4-0.1-0.9,0.4-1.6c0.3-0.5,0.7-0.9,1.1-1.3c0.3-0.3,0.6-0.6,1-0.9
			c0.4-0.3,0.8-0.2,1,0.2c0.1,0.1,0.1,0.3,0.2,0.4c0.1,0.2,0.4,0.7,0.9,1.5l1.6,2.7c0.2,0.4,0.7,0.6,1.2,0.4c0.1,0,0.1-0.1,0.2-0.1
			l2.4-1.4c0.8-0.5,1.3-0.8,1.4-0.9c0.2-0.2,0.3-0.3,0.4-0.3c0.3-0.2,0.7-0.2,0.9,0.1c0,0,0.1,0.1,0.1,0.1c0.2,0.4,0.4,0.9,0.5,1.4
			c0.1,0.6,0.2,1.1,0.3,1.7c0,0.6-0.1,1.1-0.4,1.3l-2.6,1.3l-0.7,0.4c-0.6,0.3-0.7,0.8-0.3,1.4l0.1,0.2c0.5,0.8,1.1,1.7,1.7,2.4
			c0.1,0.1,0.2,0.3,0.3,0.4c0.3,0.5,0.2,1-0.3,1.7c-0.3,0.5-0.7,0.9-1.1,1.3c-0.3,0.3-0.6,0.7-0.9,0.9c-0.2,0.1-0.4,0.1-0.6,0.1
			c-0.2-0.1-0.4-0.2-0.5-0.4c-0.1-0.1-0.1-0.2-0.2-0.3c-0.4-0.9-1-1.9-1.8-3.1l-0.6-1C250.5,607.4,250,607.3,249.4,607.7z
			 M263.5,584.9c1.8-1.1,3.9-1.9,6-2.1c0.8-0.1,1.5,0.1,2.2,0.4c0.7,0.3,1.2,0.8,1.6,1.4c0.7,1.3,0.7,2.8,0.1,4.1
			c-0.2,0.5-0.2,0.8-0.1,0.9c0.2,0.3,0.6,0.3,1.3,0.1c3.1-1.2,5.4-0.4,7,2.1c1,1.6,1.3,3.6,1,5.5c-0.4,2.2-1.5,4.2-3,5.7
			c-1.3,1.4-2.9,2.6-4.6,3.6c-1.8,1.2-3.9,2-6,2.4c-1.2,0.2-2,0-2.4-0.8c-0.3-0.4-0.3-0.9-0.2-1.4c0.1-0.5,0.5-0.9,0.9-1.2
			c0.8-0.3,1.5-0.6,2.3-0.9c0.6-0.2,1.2-0.5,1.7-0.8c1.1-0.6,1.9-1.5,2.4-2.6c0.4-0.9,0.4-1.9-0.1-2.8c-0.4-0.7-1.2-1.2-2-1.3
			c-1-0.1-1.9,0.1-2.7,0.7c-0.5,0.3-1,0.7-1.5,1.2c-0.2,0.2-0.3,0.3-0.5,0.5c-0.3,0.2-0.7,0.1-1.3-0.3c-0.6-0.3-1-0.8-1.4-1.3
			c-0.1-0.2-0.2-0.4-0.1-0.6c0.3-0.5,0.6-0.9,1-1.3c0.6-0.7,0.9-1.5,1.1-2.4c0.2-0.6,0.1-1.3-0.2-1.9c-0.4-0.6-0.9-1-1.6-1.1
			c-0.7-0.2-1.4,0-2.1,0.4c-0.3,0.2-0.7,0.4-0.9,0.7c-0.4,0.5-0.8,1.1-1.1,1.6c-0.1,0.2-0.2,0.4-0.4,0.5c-0.3,0.2-0.6,0.1-1.1-0.1
			c-0.4-0.2-0.8-0.5-1-0.9c-0.4-0.7-0.2-1.7,0.7-3.1c0.6-1,1.4-1.9,2.2-2.6C261.5,586.3,262.4,585.5,263.5,584.9z M216.6,645.4
			c1-0.7,2.2-1.1,3.4-1.2c0.5,0,0.9,0.3,1.1,0.7c0.3,0.4,0.4,0.8,0.4,1.3c0,0.4-0.2,0.7-0.5,0.9c-0.2,0.1-0.4,0.2-0.6,0.3
			c-0.5,0.2-0.9,0.4-1.4,0.6c-1.3,0.8-1.7,2.3-1.1,4.6c0.7,2.9,1.9,5.7,3.5,8.3c1.1,1.9,2.4,3.7,3.9,5.3c1.1,1.3,2.3,2.4,3.8,3.2
			c1,0.6,2.3,0.6,3.3,0c0.3-0.2,0.5-0.4,0.8-0.6c0.3-0.2,0.5-0.4,0.6-0.4c0.7-0.4,1.4-0.2,2,0.8c0.3,0.4,0.3,1,0,1.4
			c-0.6,0.8-1.3,1.5-2.2,2c-2.7,1.7-6.1,1.9-9.1,0.7c-3.9-1.4-7.1-4.3-9.7-8.6c-1.7-2.7-2.8-5.8-3.1-9
			C211.2,651.1,212.9,647.6,216.6,645.4z M245.5,657.2l-10.5,6.3c-0.9,0.6-1.6,0.6-1.9,0c-0.2-0.3-0.2-0.6-0.2-0.9
			c0.1-0.3,0.3-1.4,0.8-3c0.8-2.6,1.2-5.2,1.3-7.9c0.1-0.9-0.1-1.8-0.5-2.6c-0.2-0.5-0.7-0.8-1.2-1c-0.5-0.1-1,0-1.5,0.3
			c-0.4,0.2-0.7,0.5-1,0.8c-0.4,0.7-0.6,1.5-0.9,2.2c-0.1,0.4-0.4,0.6-0.7,0.8c-0.5,0.3-1.1,0.4-1.7,0.2c-0.6-0.1-1-0.4-1.4-0.9
			c-0.3-0.5-0.4-1.1-0.3-1.7c0.1-0.8,0.3-1.6,0.6-2.3c1.2-2.9,3.3-5.3,6-6.9c1.7-1.1,3.8-1.8,5.8-1.9c0.8,0,1.7,0.2,2.4,0.6
			c0.7,0.4,1.4,1,1.8,1.7c1.1,1.8,1,4.5-0.2,8.1c-0.4,1.3-0.6,2.1-0.3,2.5c0.2,0.3,0.5,0.5,0.8,0.5c0.4,0,0.8-0.1,1.2-0.3
			c0.9-0.6,1.6-1.5,1.8-2.5c0.1-0.4,0.2-0.7,0.3-1.1c0.1-0.2,0.2-0.3,0.4-0.4c0.9-0.5,1.8,0,2.8,1.5c0.5,0.8,0.8,1.7,1,2.6
			c0.2,0.9,0.2,1.9,0,2.8c-0.1,0.8-0.5,1.5-1.2,2c-0.2,0.1-0.5,0.2-0.7,0.2c-0.3,0-0.6-0.1-0.9-0.3c-0.3-0.2-0.6-0.2-0.9-0.2
			C246.2,656.8,245.9,657,245.5,657.2z M250.8,629.7c1.4-0.9,3-1.3,4.7-1.4c2.3-0.1,4.6,0.5,6.5,1.8c1.5,0.9,2.7,2.2,3.6,3.7
			c1.6,2.6,2,5.8,0.9,8.7c-0.8,2.2-2.3,4.1-4.3,5.3c-2.1,1.4-4.7,1.8-7.2,1.3c-3-0.7-5.6-2.6-7.1-5.4c-1.7-2.4-2.2-5.5-1.5-8.3
			C247,633,248.6,630.9,250.8,629.7z M253.2,634.6c-1,0.6-1,1.7,0,3.3c1.2,2,2.8,3.7,4.7,5c0.5,0.5,1.3,0.5,1.9,0.2
			c0.9-0.6,0.9-1.7-0.1-3.3c-0.6-1-1.3-1.9-2.1-2.8c-0.7-0.8-1.5-1.5-2.3-2.1C254.7,634.4,253.9,634.2,253.2,634.6z M268.9,619
			c1.8-1.1,3.9-1.9,6-2.1c0.8-0.1,1.5,0.1,2.2,0.4c0.7,0.3,1.2,0.8,1.6,1.4c0.7,1.3,0.7,2.8,0.1,4.1c-0.2,0.5-0.2,0.8-0.1,0.9
			c0.2,0.3,0.6,0.3,1.3,0.1c3.1-1.2,5.4-0.4,7,2.1c1,1.6,1.3,3.6,1,5.5c-0.4,2.2-1.5,4.2-3,5.7c-1.3,1.4-2.9,2.6-4.6,3.6
			c-1.8,1.2-3.9,2-6,2.4c-1.2,0.2-2,0-2.4-0.8c-0.3-0.4-0.3-0.9-0.2-1.4c0.1-0.5,0.5-0.9,0.9-1.2c0.8-0.3,1.5-0.6,2.3-0.9
			c0.6-0.2,1.2-0.5,1.7-0.8c1.1-0.6,1.9-1.5,2.4-2.6c0.4-0.9,0.4-1.9-0.1-2.8c-0.4-0.7-1.2-1.2-2-1.3c-1-0.1-1.9,0.1-2.7,0.7
			c-0.5,0.3-1,0.7-1.5,1.2c-0.2,0.2-0.3,0.3-0.5,0.5c-0.3,0.2-0.7,0.1-1.3-0.3c-0.6-0.3-1-0.8-1.4-1.3c-0.1-0.2-0.2-0.4-0.1-0.6
			c0.3-0.5,0.6-0.9,1-1.3c0.6-0.7,0.9-1.5,1.1-2.4c0.2-0.6,0.1-1.3-0.2-1.9c-0.4-0.6-0.9-1-1.6-1.1c-0.7-0.2-1.4,0-2.1,0.4
			c-0.3,0.2-0.7,0.4-0.9,0.7c-0.4,0.5-0.8,1.1-1.1,1.6c-0.1,0.2-0.2,0.4-0.4,0.5c-0.3,0.2-0.6,0.1-1.1-0.1c-0.4-0.2-0.8-0.5-1-0.9
			c-0.4-0.7-0.2-1.7,0.7-3.1c0.6-1,1.4-1.9,2.2-2.6C266.8,620.4,267.8,619.7,268.9,619z M292.9,618.9l-0.8,0.5
			c-1.2,0.7-2.2,1.4-3,1.9c-0.1,0.1-0.2,0.2-0.3,0.2c-0.2,0.1-0.4,0.2-0.6,0.1c-0.2,0-0.4-0.1-0.5-0.3c-0.2-0.5-0.3-0.9-0.4-1.4
			c-0.1-0.6-0.2-1.1-0.3-1.7c-0.1-0.5,0.2-1,0.6-1.3c0.2-0.1,0.3-0.2,0.5-0.2c1.2-0.6,1.9-0.9,2.2-1.1l0.4-0.3
			c0.4-0.2,0.6-0.7,0.5-1.1c0-0.1-0.1-0.2-0.1-0.2l-0.6-1c-0.4-0.7-0.9-1.4-1.5-2c-0.1-0.1-0.2-0.2-0.2-0.3
			c-0.2-0.4-0.1-0.9,0.4-1.6c0.3-0.5,0.7-0.9,1.1-1.3c0.3-0.3,0.6-0.6,1-0.9c0.4-0.3,0.8-0.2,1,0.2c0.1,0.1,0.1,0.3,0.2,0.4
			c0.1,0.2,0.4,0.7,0.9,1.5l1.6,2.7c0.2,0.4,0.7,0.6,1.2,0.4c0.1,0,0.1-0.1,0.2-0.1l2.4-1.4c0.8-0.5,1.3-0.8,1.4-0.9
			c0.2-0.2,0.3-0.3,0.4-0.3c0.3-0.2,0.7-0.2,0.9,0.1c0,0,0.1,0.1,0.1,0.1c0.2,0.4,0.4,0.9,0.5,1.4c0.1,0.6,0.2,1.1,0.3,1.7
			c0,0.6-0.1,1.1-0.4,1.3l-2.6,1.3l-0.7,0.4c-0.6,0.3-0.7,0.8-0.3,1.4l0.1,0.2c0.5,0.8,1.1,1.7,1.7,2.4c0.1,0.1,0.2,0.3,0.3,0.4
			c0.3,0.5,0.2,1-0.3,1.7c-0.3,0.5-0.7,0.9-1.1,1.3c-0.3,0.3-0.6,0.7-0.9,0.9c-0.2,0.1-0.4,0.1-0.6,0.1c-0.2-0.1-0.4-0.2-0.5-0.4
			c-0.1-0.1-0.1-0.2-0.2-0.3c-0.4-0.9-1-1.9-1.8-3.1l-0.6-1C293.9,618.6,293.4,618.5,292.9,618.9z"/>
		<g id="Group_519" transform="translate(4906.009 1933.614) rotate(24)">

				<ellipse id="Ellipse_156" transform="matrix(3.036897e-06 1 -1 3.036897e-06 -4264.1553 5542.1411)" class="st9" cx="-4903.2" cy="639" rx="17.3" ry="37.2"/>

				<ellipse id="Ellipse_157" transform="matrix(3.036897e-06 1 -1 3.036897e-06 -4248.7202 5557.5762)" class="st9" cx="-4903.2" cy="654.4" rx="17.3" ry="37.2"/>
			<line id="Line_96" class="st9" x1="-4940.4" y1="639" x2="-4940.4" y2="655.2"/>
			<line id="Line_97" class="st9" x1="-4866" y1="637.3" x2="-4866" y2="656.3"/>
		</g>
		<g id="Group_518" transform="translate(4717.69 -2354.027) rotate(-22)">

				<ellipse id="Ellipse_156-2" transform="matrix(-1 2.195350e-06 -2.195350e-06 -1 -9822.7539 1315.6891)" class="st10" cx="-4911.4" cy="657.8" rx="29" ry="19.1"/>

				<ellipse id="Ellipse_157-2" transform="matrix(-1 2.195350e-06 -2.195350e-06 -1 -9822.7539 1281.6891)" class="st10" cx="-4911.4" cy="640.8" rx="29" ry="19.1"/>
			<line id="Line_96-2" class="st10" x1="-4940.4" y1="657.8" x2="-4940.4" y2="640"/>
			<line id="Line_97-2" class="st10" x1="-4882.4" y1="659.7" x2="-4882.4" y2="638.7"/>
		</g>
		<g id="Group_516" transform="translate(286.538 -565.769) rotate(79)">
			<g id="Group_277" transform="matrix(0.899, 0.438, -0.438, 0.899, 848.402, 104.592)">
				<path id="Path_218" class="st11" d="M0,35.1L14.9,0l14.9,35.1"/>
				<path id="Path_219" class="st11" d="M29.8,35.4c0,3.5-6.9,6.4-15,6.4C6.6,41.8,0,39,0,35.4C0,31.9,6.6,29,14.7,29
					C22.9,29,29.8,31.9,29.8,35.4z"/>
			</g>
			<g id="Group_281" transform="matrix(-0.899, -0.438, 0.438, -0.899, 874.957, 118.048)">
				<path id="Path_218-2" class="st11" d="M0,35.1L14.9,0l14.9,35.1"/>
				<path id="Path_219-2" class="st11" d="M29.8,35.4c0,3.5-6.9,6.4-15,6.4S0,39,0,35.4S6.6,29,14.7,29S29.8,31.9,29.8,35.4z"/>
			</g>
		</g>
		<g id="Group_520" transform="translate(-3774.612 -2143.602) rotate(-142)">
			<path id="Path_218-3" class="st10" d="M-5044.1,665.3l37.4-88.3l37.4,88.2"/>
			<path id="Path_219-3" class="st10" d="M-4969.3,666.1c0,8.9-17.4,16.1-37.8,16.1s-37-7.2-37-16.1s16.6-16.1,37-16.1
				S-4969.3,657.3-4969.3,666.1z"/>
		</g>
		<g id="Group_521" transform="translate(4729.087 -2567.224) rotate(-17)">
			<path id="Path_220" class="st12" d="M-4739.3,1559.5v-29.9l28.3-15.3v30.6L-4739.3,1559.5z"/>
			<path id="Path_221" class="st12" d="M-4739.3,1529.6l-26-15.3l26-14.6l28.3,14.6L-4739.3,1529.6z"/>
			<path id="Path_222" class="st12" d="M-4765.3,1514.3v32.2l26,13v-29.9L-4765.3,1514.3z"/>
		</g>
		<path id="Path_636" class="st13" d="M310.2,815.6l47.4-85.9l356.3,1.9"/>
		<path id="Path_637" class="st3" d="M354.7,729.3l50.4,64.2"/>
		<circle id="Ellipse_235" class="st7" cx="364.6" cy="739.1" r="3"/>
		<g id="Group_517" transform="translate(206.382 -150.577) rotate(22)">
			<g id="Group_279" transform="matrix(0.875, 0.485, -0.485, 0.875, 4908.159, 1637.312)">

					<ellipse id="Ellipse_158" transform="matrix(2.862507e-06 1 -1 2.862507e-06 -3484.6382 5586.2456)" class="st10" cx="-4535.4" cy="1050.8" rx="5.5" ry="14.9"/>

					<ellipse id="Ellipse_159" transform="matrix(2.862507e-06 1 -1 2.862507e-06 -3329.1702 5741.7129)" class="st10" cx="-4535.4" cy="1206.3" rx="5.5" ry="14.9"/>
				<line id="Line_98" class="st10" x1="-4550.4" y1="1205.4" x2="-4550.4" y2="1052.2"/>
				<line id="Line_99" class="st10" x1="-4520.5" y1="1052.2" x2="-4520.5" y2="1205.4"/>
				<line id="Line_100" class="st10" x1="-4535.5" y1="1056.3" x2="-4535.5" y2="1200.8"/>
			</g>
			<circle id="Ellipse_196" class="st7" cx="424.7" cy="371.1" r="3"/>
			<circle id="Ellipse_204" class="st7" cx="363.7" cy="481.3" r="3"/>
			<circle id="Ellipse_205" class="st7" cx="394.2" cy="426.2" r="3"/>
			<circle id="Ellipse_206" class="st7" cx="409.7" cy="398.2" r="3"/>
			<circle id="Ellipse_207" class="st7" cx="379.2" cy="453.3" r="3"/>
		</g>
		<circle id="Ellipse_230" class="st14" cx="644.7" cy="281.1" r="3"/>
		<circle id="Ellipse_231" class="st14" cx="666.7" cy="258.1" r="3"/>
		<circle id="Ellipse_232" class="st14" cx="634.7" cy="253.1" r="3"/>
		<circle id="Ellipse_228" class="st14" cx="614.7" cy="274.1" r="3"/>
		<circle id="Ellipse_229" class="st14" cx="624.7" cy="305.1" r="3"/>
		<circle id="Ellipse_233" class="st14" cx="652.7" cy="309.1" r="3"/>
		<circle id="Ellipse_236" class="st14" cx="677.2" cy="287.1" r="3"/>
		<circle id="Ellipse_234" class="st7" cx="357.4" cy="729.5" r="3"/>
		<g id="Group_522" transform="translate(791.338 109.257) rotate(39)">
			<circle id="Ellipse_208" class="st10" cx="161.7" cy="423.2" r="21.8"/>

				<ellipse id="Ellipse_209" transform="matrix(2.226018e-06 1 -1 2.226018e-06 584.8347 261.5203)" class="st10" cx="161.7" cy="423.2" rx="21.8" ry="3.5"/>
		</g>
		<g id="Group_523" transform="translate(-547 1.492)">
			<g id="Ellipse_210" transform="translate(1152 649)">
				<circle class="st15" cx="6.3" cy="6.3" r="6.3"/>
				<circle class="st16" cx="6.3" cy="6.3" r="5.8"/>
			</g>
			<path id="Subtraction_36" class="st17" d="M1158.1,660.6c-3,0-5.5-2.5-5.5-5.5c0-3,2.5-5.5,5.5-5.5c0.5,0,0.9,0.1,1.4,0.2
				c-2.9,0.8-4.7,3.8-3.9,6.7c0.5,1.9,2,3.4,3.9,3.9C1159,660.5,1158.5,660.6,1158.1,660.6z"/>
		</g>
		<g id="Group_524" transform="matrix(-0.951, -0.309, 0.309, -0.951, 1514.883, 1654.497)">
			<g id="Ellipse_210-2" transform="translate(1152 649)">
				<circle class="st15" cx="3.6" cy="3.6" r="3.6"/>
				<circle class="st16" cx="3.6" cy="3.6" r="3.1"/>
			</g>
			<path id="Subtraction_36-2" class="st17" d="M1156.1,655.7c-1.7,0-3.2-1.4-3.2-3.2c0-1.7,1.4-3.2,3.2-3.2c0.3,0,0.5,0,0.8,0.1
				c-1.7,0.4-2.7,2.2-2.3,3.9c0.3,1.1,1.2,2,2.3,2.3C1156.6,655.6,1156.3,655.7,1156.1,655.7z"/>
		</g>
		<g id="Group_527" transform="matrix(-0.951, -0.309, 0.309, -0.951, 1529.883, 1640.497)">
			<g id="Ellipse_210-3" transform="translate(1152 649)">
				<circle class="st15" cx="3.6" cy="3.6" r="3.6"/>
				<circle class="st16" cx="3.6" cy="3.6" r="3.1"/>
			</g>
			<path id="Subtraction_36-3" class="st17" d="M1156.1,655.7c-1.7,0-3.2-1.4-3.2-3.2c0-1.7,1.4-3.2,3.2-3.2c0.3,0,0.5,0,0.8,0.1
				c-1.7,0.4-2.7,2.2-2.3,3.9c0.3,1.1,1.2,2,2.3,2.3C1156.6,655.6,1156.3,655.7,1156.1,655.7z"/>
		</g>
		<g id="Group_525" transform="translate(403.328 -257.66)">
			<g id="Group_473">
				<path id="Path_606" class="st7" d="M220.5,369.4c-8-5.7-9.8-16.9-4.1-24.9s16.9-9.8,24.9-4.1c8,5.7,9.8,16.9,4.1,24.9
					C239.6,373.3,228.5,375.2,220.5,369.4z M240.1,342.1c-7.1-5.1-17-3.5-22.1,3.6c-5.1,7.1-3.5,17,3.6,22.1
					c7.1,5.1,17,3.5,22.1-3.6C248.8,357.1,247.1,347.2,240.1,342.1L240.1,342.1z"/>
			</g>
			<g id="Group_474">
				<path id="Path_607" class="st7" d="M229.2,357.3c-1.3-0.9-1.6-2.7-0.6-3.9c0.9-1.3,2.7-1.6,3.9-0.6c1.3,0.9,1.6,2.7,0.6,3.9
					C232.2,357.9,230.5,358.2,229.2,357.3z M231.3,354.3c-0.4-0.3-0.9-0.2-1.1,0.2c-0.3,0.4-0.2,0.9,0.2,1.1
					c0.4,0.3,0.9,0.2,1.1-0.2C231.8,355.1,231.7,354.6,231.3,354.3z"/>
			</g>
			<g id="Group_477">
				<g id="Group_475">
					<path id="Path_608" class="st7" d="M223.3,340.4c-0.1-0.1-0.2-0.2-0.3-0.4c-2-3.8-0.5-8.6,3.4-10.6c3.8-2,8.6-0.5,10.6,3.4
						c1,2,1.2,4.4,0.3,6.5c-0.2,0.5-0.8,0.8-1.3,0.6c-0.5-0.2-0.8-0.8-0.6-1.3c0,0,0,0,0-0.1c1.2-3-0.2-6.4-3.2-7.6
						c-3-1.2-6.4,0.2-7.6,3.2c-0.6,1.6-0.5,3.3,0.2,4.9c0.3,0.5,0.1,1.1-0.4,1.3C224,340.7,223.6,340.7,223.3,340.4L223.3,340.4z"/>
				</g>
				<g id="Group_476">
					<path id="Path_609" class="st7" d="M247,357.4c-0.4-0.3-0.5-0.9-0.2-1.4c0.2-0.3,0.6-0.5,1-0.4c3.2,0.5,6.2-1.7,6.6-4.9
						c0.5-3.2-1.7-6.2-4.9-6.6c-1.8-0.3-3.5,0.3-4.8,1.5c-0.4,0.4-1,0.4-1.4,0c-0.4-0.4-0.4-1,0-1.4c0,0,0,0,0,0
						c3.2-2.9,8.1-2.7,11.1,0.4c2.9,3.2,2.7,8.1-0.4,11.1c-1.7,1.6-4.1,2.3-6.5,2C247.3,357.6,247.1,357.5,247,357.4z"/>
				</g>
			</g>
			<g id="Group_478">
				<path id="Path_610" class="st7" d="M229.6,354.1c-0.2-0.1-0.3-0.3-0.4-0.5l-2.1-7.4c-0.2-0.5,0.1-1.1,0.7-1.2s1.1,0.1,1.2,0.7
					c0,0,0,0,0,0l2.1,7.4c0.1,0.5-0.2,1.1-0.7,1.2C230.2,354.3,229.9,354.2,229.6,354.1L229.6,354.1z"/>
			</g>
			<g id="Group_479">
				<path id="Path_611" class="st7" d="M232.1,355.8c-0.4-0.3-0.6-0.9-0.2-1.4c0.1-0.2,0.4-0.3,0.6-0.4l12.5-2.8
					c0.5-0.1,1.1,0.2,1.2,0.8c0.1,0.5-0.2,1.1-0.8,1.2c0,0,0,0,0,0l-12.5,2.8C232.6,356,232.3,356,232.1,355.8z"/>
			</g>
			<g id="Group_482">
				<g id="Group_480">
					<path id="Path_612" class="st7" d="M207.1,361.9c-0.4-0.3-0.6-0.9-0.2-1.4c0.1-0.2,0.3-0.3,0.5-0.4l6.8-2.2
						c0.5-0.1,1.1,0.2,1.2,0.7c0.1,0.5-0.1,1-0.6,1.2l-6.8,2.2C207.7,362.2,207.3,362.1,207.1,361.9z"/>
				</g>
				<g id="Group_481">
					<path id="Path_613" class="st7" d="M231.8,379.7c-0.3-0.2-0.4-0.5-0.4-0.8l-0.1-7.2c0-0.6,0.4-1,1-1c0.6,0,1,0.4,1,1l0.1,7.2
						c0,0.6-0.4,1-1,1c0,0,0,0,0,0C232.2,379.9,232,379.8,231.8,379.7z"/>
				</g>
			</g>
			<g id="Group_489">
				<g id="Group_485">
					<g id="Group_483">
						<path id="Path_614" class="st7" d="M237.4,345.8c-0.4-0.3-0.6-0.9-0.2-1.4c0,0,0,0,0,0l1.3-1.8c0.3-0.4,0.9-0.6,1.4-0.2
							s0.6,0.9,0.2,1.4l0,0l-1.3,1.8C238.5,346,237.9,346.1,237.4,345.8C237.4,345.8,237.4,345.8,237.4,345.8z"/>
					</g>
					<g id="Group_484">
						<path id="Path_615" class="st7" d="M221.8,367.6c-0.4-0.3-0.6-0.9-0.2-1.4c0,0,0,0,0,0l1.3-1.8c0.3-0.5,0.9-0.6,1.4-0.3
							c0.5,0.3,0.6,0.9,0.3,1.4c0,0,0,0,0,0l-1.3,1.8C222.9,367.8,222.3,367.9,221.8,367.6C221.8,367.6,221.8,367.6,221.8,367.6z"/>
					</g>
				</g>
				<g id="Group_488">
					<g id="Group_486">
						<path id="Path_616" class="st7" d="M242,364.2l-1.8-1.3c-0.4-0.3-0.6-0.9-0.2-1.4c0.3-0.4,0.9-0.6,1.4-0.2l0,0l1.8,1.3
							c0.4,0.3,0.6,0.9,0.2,1.4C243.1,364.4,242.5,364.5,242,364.2L242,364.2L242,364.2z"/>
					</g>
					<g id="Group_487">
						<path id="Path_617" class="st7" d="M220.3,348.6l-1.8-1.3c-0.5-0.3-0.6-0.9-0.3-1.4c0.3-0.5,0.9-0.6,1.4-0.3c0,0,0,0,0,0
							l1.8,1.3c0.5,0.3,0.6,0.9,0.3,1.4C221.4,348.8,220.8,349,220.3,348.6C220.3,348.6,220.3,348.6,220.3,348.6L220.3,348.6z"/>
					</g>
				</g>
			</g>
		</g>
		<g id="Group_528" transform="translate(-20.076 465.191)">
			<g id="Group_491">
				<path id="Path_618" class="st2" d="M275.2,274.6c-10.3-2.9-16.3-13.5-13.4-23.8c0,0,0,0,0,0c0.2-0.5,0.7-0.8,1.2-0.7
					c0.5,0.1,0.8,0.7,0.7,1.2c-2.6,9.2,2.8,18.8,12,21.4c9.2,2.6,18.8-2.8,21.4-12c2-7.1-0.7-14.7-6.8-18.9
					c-0.5-0.3-0.6-0.9-0.3-1.4c0.3-0.5,0.9-0.6,1.4-0.3l0,0c8.8,6.1,11,18.2,4.9,27C291.7,273.7,283.2,276.8,275.2,274.6
					L275.2,274.6z"/>
			</g>
			<g id="Group_492">
				<path id="Path_619" class="st2" d="M291.2,250.3c-0.5-0.1-0.8-0.7-0.7-1.2c0.1-0.2,0.2-0.4,0.4-0.6l4.4-2.8
					c0.5-0.3,1.1-0.2,1.4,0.3c0.3,0.5,0.2,1.1-0.3,1.4l-4.4,2.8C291.7,250.4,291.4,250.4,291.2,250.3z"/>
			</g>
			<g id="Group_493">
				<path id="Path_620" class="st2" d="M264.5,267.1c-0.5-0.1-0.8-0.7-0.7-1.2c0.1-0.2,0.2-0.4,0.4-0.6l4.2-2.6
					c0.5-0.3,1.1-0.2,1.4,0.3s0.2,1.1-0.3,1.4l-4.2,2.6C265.1,267.2,264.8,267.2,264.5,267.1z"/>
			</g>
			<g id="Group_494">
				<path id="Path_621" class="st2" d="M273.7,278.7c-0.5-0.1-0.8-0.7-0.7-1.2l1.2-4.3c0.1-0.5,0.7-0.9,1.2-0.7
					c0.5,0.1,0.9,0.7,0.7,1.2c0,0,0,0,0,0l-1.2,4.3C274.8,278.6,274.2,278.9,273.7,278.7z"/>
			</g>
			<g id="Group_495">
				<path id="Path_622" class="st2" d="M278,282.5l-9.8-2.7c-0.5-0.1-0.8-0.7-0.7-1.2c0-0.1,0.1-0.2,0.2-0.3l1.6-2.1
					c0.2-0.3,0.7-0.5,1.1-0.4l7.9,2.2c0.4,0.1,0.7,0.4,0.7,0.9l0.3,2.7c0.1,0.5-0.3,1-0.9,1.1C278.2,282.6,278.1,282.6,278,282.5
					L278,282.5z M270.2,278.3l6.9,1.9l-0.1-0.5l-6.6-1.8L270.2,278.3z"/>
			</g>
			<g id="Group_503">
				<g id="Group_496">
					<path id="Path_623" class="st2" d="M276.5,270c-7.5-2.1-11.9-9.9-9.8-17.5c2.1-7.5,9.9-11.9,17.5-9.8
						c7.5,2.1,11.9,9.9,9.8,17.5C291.8,267.7,284,272.1,276.5,270z M283.6,244.7c-6.5-1.8-13.2,2-15,8.4c-1.8,6.5,2,13.2,8.4,15
						c6.5,1.8,13.2-2,15-8.4C293.8,253.2,290.1,246.5,283.6,244.7L283.6,244.7z"/>
				</g>
				<g id="Group_497">
					<path id="Path_624" class="st2" d="M276.5,270c-3.9-1.1-5.3-7.9-3.1-15.6s6.9-12.8,10.8-11.7s5.3,7.9,3.1,15.6
						S280.4,271.1,276.5,270z M283.6,244.7c-2.4-0.7-6.4,3.4-8.3,10.3c-1.9,6.9-0.6,12.5,1.8,13.1s6.4-3.4,8.3-10.3
						S286,245.3,283.6,244.7L283.6,244.7z"/>
				</g>
				<g id="Group_500">
					<g id="Group_498">
						<path id="Path_625" class="st2" d="M281.9,250.7c-3.4-0.9-6.5-2.5-9.2-4.8c-0.4-0.4-0.4-1-0.1-1.4c0.4-0.4,1-0.4,1.4-0.1
							c5,4,11.4,5.8,17.7,5c0.5-0.1,1.1,0.2,1.2,0.8c0.1,0.5-0.2,1.1-0.8,1.2C288.8,251.9,285.3,251.7,281.9,250.7z"/>
					</g>
					<g id="Group_499">
						<path id="Path_626" class="st2" d="M268.3,263.4c-0.5-0.1-0.8-0.7-0.7-1.2c0.1-0.4,0.4-0.6,0.8-0.7c7-1,14,1,19.5,5.5
							c0.4,0.4,0.4,1,0.1,1.4c-0.4,0.4-1,0.4-1.4,0.1c-5-4-11.4-5.8-17.7-5C268.6,263.4,268.5,263.4,268.3,263.4z"/>
					</g>
				</g>
				<g id="Group_501">
					<path id="Path_627" class="st2" d="M276.5,270c-0.5-0.1-0.8-0.7-0.7-1.2l7.1-25.4c0.2-0.5,0.7-0.8,1.2-0.7
						c0.5,0.1,0.8,0.7,0.7,1.2l-7.1,25.4C277.6,269.9,277,270.2,276.5,270C276.5,270,276.5,270,276.5,270z"/>
				</g>
				<g id="Group_502">
					<path id="Path_628" class="st2" d="M292.7,260.9l-25.4-7.1c-0.5-0.2-0.8-0.7-0.7-1.2c0.1-0.5,0.7-0.8,1.2-0.7l25.4,7.1
						c0.5,0.1,0.8,0.7,0.7,1.2C293.8,260.7,293.3,261,292.7,260.9C292.7,260.9,292.7,260.9,292.7,260.9z"/>
				</g>
			</g>
		</g>
		<g id="Group_526" transform="translate(339.106 519.014) rotate(-45)">
			<g id="Group_505" transform="translate(66.82 318.624)">
				<path id="Path_629" class="st14" d="M12.5,56.4C2.6,52.7-2.4,41.8,1.1,31.9c2.7-7.7,8.7-12.1,17-12.5L24.8,1
					c0.3-0.8,1.2-1.2,2-0.9c0.8,0.3,1.2,1.2,0.9,2l-7.1,19.4c-0.2,0.6-0.8,1-1.5,1c-7.5,0-12.7,3.6-15.1,10.4
					c-3,8.2,1.2,17.4,9.4,20.4c8.2,3,17.4-1.2,20.4-9.4c2.3-6.3,0.4-13.4-4.7-17.7c-0.5-0.4-0.7-1.1-0.5-1.8l7.1-19.4
					c0.3-0.8,1.2-1.2,2-0.9c0.8,0.3,1.2,1.2,0.9,2l-6.8,18.4c7.7,7.2,8.1,19.3,0.9,26.9C27.7,57.1,19.6,59,12.5,56.4L12.5,56.4z"/>
			</g>
			<g id="Group_506" transform="translate(69.716 345.191)">
				<path id="Path_630" class="st14" d="M33.4,14.9L1,3.1c-0.8-0.3-1.3-1.2-1-2c0.3-0.8,1.2-1.3,2-1c0,0,0,0,0,0L34.5,12
					c0.8,0.3,1.2,1.2,0.9,2S34.2,15.2,33.4,14.9z"/>
			</g>
			<g id="Group_507" transform="translate(89.034 317.695)">
				<path id="Path_631" class="st14" d="M17.1,9L1,3.1C0.2,2.8-0.2,1.9,0.1,1c0.3-0.8,1.2-1.2,2-0.9l0,0L18.2,6
					c0.8,0.3,1.2,1.2,0.9,2C18.9,8.9,17.9,9.3,17.1,9L17.1,9z"/>
			</g>
		</g>
		<g id="Group_514" transform="translate(-264.743 -53.778)" class="st18">
			<g id="Group_509" transform="translate(494.815 299.611)">
				<path id="Path_632" class="st7" d="M1.1,3.3C0.7,3.3,0.4,3,0.3,2.7C0.2,2.1,0.1,1.5,0,0.9C-0.1,0.5,0.2,0.1,0.6,0
					C1-0.1,1.4,0.2,1.5,0.6c0,0,0,0,0,0c0.1,0.6,0.2,1.2,0.3,1.8c0.1,0.4-0.2,0.8-0.6,0.9c0,0,0,0,0,0C1.2,3.3,1.1,3.3,1.1,3.3z"/>
			</g>
			<g id="Group_510" transform="translate(412.251 140.706)">
				<path id="Path_633" class="st7" d="M82.8,156.7c-0.4,0-0.7-0.3-0.7-0.7c-0.1-1.3-0.2-2.5-0.2-3.8c0-0.4,0.3-0.7,0.7-0.7
					s0.7,0.3,0.7,0.7c0,1.2,0.1,2.4,0.2,3.6C83.6,156.3,83.3,156.7,82.8,156.7C82.9,156.7,82.9,156.7,82.8,156.7
					C82.9,156.7,82.9,156.7,82.8,156.7z M82.9,149.3C82.8,149.3,82.8,149.3,82.9,149.3c-0.5,0-0.8-0.4-0.7-0.8c0,0,0,0,0,0
					c0.1-1.3,0.3-2.5,0.6-3.7c0.1-0.4,0.5-0.7,0.9-0.6c0.4,0.1,0.7,0.5,0.6,0.9c0,0,0,0,0,0c-0.3,1.2-0.4,2.4-0.6,3.6
					C83.6,149,83.2,149.3,82.9,149.3L82.9,149.3z M84.5,142.1c-0.4,0-0.7-0.3-0.7-0.7c0-0.1,0-0.2,0-0.3c0.4-1.2,1-2.4,1.6-3.5
					c0.2-0.4,0.7-0.5,1-0.3c0.4,0.2,0.5,0.7,0.3,1l0,0c-0.6,1-1.1,2.1-1.5,3.2C85.1,141.9,84.8,142.1,84.5,142.1L84.5,142.1z
					 M88.2,135.7c-0.4,0-0.7-0.3-0.7-0.7c0-0.2,0.1-0.4,0.2-0.5c0.9-1,1.8-1.8,2.9-2.6c0.3-0.2,0.8-0.1,1,0.2s0.1,0.8-0.2,1
					c-1,0.7-1.9,1.4-2.6,2.3C88.6,135.6,88.4,135.7,88.2,135.7L88.2,135.7z M94.3,131.6c-0.4,0-0.7-0.3-0.7-0.7
					c0-0.3,0.2-0.6,0.5-0.7c1.2-0.4,2.4-0.8,3.7-1c0.4-0.1,0.8,0.2,0.8,0.6c0.1,0.4-0.2,0.8-0.6,0.8l0,0c-1.2,0.2-2.3,0.5-3.4,0.9
					C94.4,131.6,94.4,131.6,94.3,131.6L94.3,131.6z M112.6,130.6L112.6,130.6c-1.3,0-2.5-0.1-3.7-0.1c-0.4,0-0.7-0.4-0.7-0.8
					c0-0.4,0.4-0.7,0.8-0.7c1.2,0.1,2.5,0.1,3.7,0.1c0.4,0,0.7,0.3,0.7,0.7S113,130.6,112.6,130.6L112.6,130.6L112.6,130.6z
					 M116.3,130.5c-0.4,0-0.7-0.3-0.7-0.7c0-0.4,0.3-0.7,0.7-0.7c1.2-0.1,2.4-0.2,3.6-0.3c0.4,0,0.8,0.2,0.8,0.6
					c0,0.4-0.2,0.8-0.6,0.8C118.9,130.3,117.6,130.4,116.3,130.5L116.3,130.5z M101.5,130.3c-0.4,0-0.7-0.3-0.7-0.7
					c0-0.4,0.3-0.7,0.7-0.7c1.2-0.1,2.5,0,3.8,0c0.4,0,0.7,0.3,0.7,0.8c0,0,0,0,0,0c0,0.4-0.3,0.7-0.8,0.7
					C104,130.3,102.8,130.3,101.5,130.3L101.5,130.3z M123.7,129.6c-0.4,0-0.7-0.3-0.7-0.7c0-0.4,0.3-0.7,0.6-0.7
					c1.2-0.2,2.4-0.5,3.6-0.8c0.4-0.1,0.8,0.1,0.9,0.5c0.1,0.4-0.1,0.8-0.5,0.9c-1.2,0.3-2.4,0.6-3.7,0.8
					C123.8,129.6,123.7,129.6,123.7,129.6L123.7,129.6z M130.9,127.9c-0.4,0-0.7-0.3-0.7-0.7c0-0.3,0.2-0.6,0.5-0.7
					c1.2-0.4,2.3-0.8,3.5-1.2c0.4-0.1,0.8,0,1,0.4s0,0.8-0.4,1l0,0c-1.2,0.4-2.4,0.9-3.5,1.2C131,127.8,131,127.9,130.9,127.9
					L130.9,127.9z M137.8,125.2c-0.4,0-0.7-0.3-0.7-0.7c0-0.3,0.2-0.6,0.4-0.7c1.1-0.5,2.2-1,3.3-1.6c0.4-0.2,0.8,0,1,0.4
					c0.2,0.3,0,0.7-0.3,0.9c-1.1,0.6-2.2,1.1-3.4,1.7C138,125.2,137.9,125.2,137.8,125.2L137.8,125.2z M144.3,121.7
					c-0.4,0-0.7-0.3-0.7-0.7c0-0.3,0.1-0.5,0.4-0.6c1-0.6,2.1-1.3,3.1-2c0.3-0.3,0.8-0.2,1,0.1s0.2,0.8-0.1,1c0,0-0.1,0-0.1,0.1
					c-1,0.7-2.1,1.4-3.1,2.1C144.6,121.7,144.5,121.7,144.3,121.7L144.3,121.7z M150.4,117.4c-0.4,0-0.7-0.3-0.7-0.7
					c0-0.2,0.1-0.4,0.3-0.6c1-0.8,1.9-1.6,2.8-2.4c0.3-0.3,0.8-0.2,1,0.1c0.3,0.3,0.2,0.7,0,1c-0.9,0.8-1.9,1.7-2.8,2.5
					C150.7,117.4,150.6,117.4,150.4,117.4L150.4,117.4z M155.8,112.4c-0.4,0-0.7-0.3-0.7-0.7c0-0.2,0.1-0.4,0.2-0.5
					c0.9-0.9,1.7-1.8,2.4-2.7c0.3-0.3,0.7-0.4,1-0.1c0.3,0.3,0.4,0.7,0.1,1c-0.8,1-1.6,1.9-2.5,2.8
					C156.2,112.3,156,112.4,155.8,112.4L155.8,112.4z M160.5,106.6c-0.4,0-0.7-0.3-0.7-0.7c0-0.1,0-0.3,0.1-0.4c0.7-1,1.3-2,1.9-3.1
					c0.2-0.4,0.6-0.5,1-0.3c0.4,0.2,0.5,0.6,0.3,1c-0.6,1.1-1.2,2.2-1.9,3.2C160.9,106.5,160.7,106.6,160.5,106.6L160.5,106.6z
					 M39.8,104.5h-0.2c-0.4,0-0.7-0.3-0.7-0.7c0-0.4,0.3-0.7,0.7-0.7h0.2c0.3,0,0.6,0,0.9,0c0.8,0,1.7,0,2.5-0.1
					c0.4,0,0.7,0.3,0.8,0.7c0,0.4-0.3,0.7-0.7,0.8c-0.9,0-1.7,0.1-2.6,0.1C40.4,104.5,40.1,104.5,39.8,104.5L39.8,104.5z
					 M35.9,104.4L35.9,104.4c-1.3-0.1-2.6-0.2-3.8-0.4c-0.4-0.1-0.7-0.4-0.6-0.8c0.1-0.4,0.4-0.7,0.8-0.6c1.2,0.2,2.4,0.3,3.6,0.4
					c0.4,0,0.7,0.4,0.7,0.8C36.6,104.1,36.3,104.4,35.9,104.4L35.9,104.4z M47,104.2c-0.4,0-0.7-0.3-0.7-0.7c0-0.4,0.3-0.7,0.7-0.7
					c1.2-0.1,2.4-0.3,3.6-0.4c0.4-0.1,0.8,0.2,0.8,0.6c0.1,0.4-0.2,0.8-0.6,0.8C49.5,103.9,48.3,104.1,47,104.2
					C47,104.2,47,104.2,47,104.2L47,104.2z M28.5,103.4c-0.1,0-0.1,0-0.2,0c-1.3-0.3-2.5-0.6-3.6-1c-0.4-0.1-0.6-0.5-0.5-0.9
					c0.1-0.4,0.5-0.6,0.9-0.5c1.1,0.4,2.3,0.7,3.5,0.9c0.4,0.1,0.7,0.5,0.6,0.9C29.2,103.1,28.9,103.4,28.5,103.4L28.5,103.4z
					 M54.3,103.1c-0.4,0-0.7-0.3-0.7-0.7c0-0.4,0.3-0.7,0.6-0.7c1.2-0.2,2.4-0.5,3.6-0.8c0.4-0.1,0.8,0.1,0.9,0.5s-0.1,0.8-0.5,0.9
					c0,0,0,0,0,0c-1.2,0.3-2.4,0.5-3.7,0.8C54.4,103.1,54.4,103.1,54.3,103.1L54.3,103.1z M61.5,101.4c-0.4,0-0.7-0.3-0.7-0.7
					c0-0.3,0.2-0.6,0.5-0.7c1.2-0.3,2.4-0.7,3.5-1.1c0.4-0.1,0.8,0.1,0.9,0.5c0.1,0.4-0.1,0.8-0.5,0.9c0,0,0,0,0,0
					c-1.2,0.4-2.4,0.8-3.6,1.1C61.7,101.4,61.6,101.4,61.5,101.4L61.5,101.4z M21.5,101.1c-0.1,0-0.2,0-0.3-0.1
					c-1.2-0.5-2.3-1.1-3.4-1.7c-0.3-0.2-0.4-0.7-0.2-1c0.2-0.3,0.6-0.4,1-0.2c1,0.6,2.1,1.2,3.2,1.7c0.4,0.2,0.5,0.6,0.4,1
					C22,101,21.8,101.1,21.5,101.1L21.5,101.1z M163.9,100.1c-0.4,0-0.7-0.3-0.7-0.7c0-0.1,0-0.2,0-0.3c0.4-1.1,0.7-2.1,1-3.2l0-0.2
					c0.1-0.4,0.5-0.6,0.9-0.5c0.4,0.1,0.6,0.5,0.5,0.9l-0.1,0.2c-0.3,1.2-0.7,2.3-1.1,3.4C164.5,99.9,164.2,100.1,163.9,100.1
					L163.9,100.1z M68.5,99.1c-0.4,0-0.7-0.3-0.7-0.7c0-0.3,0.2-0.6,0.5-0.7c1.1-0.4,2.3-0.9,3.4-1.4c0.4-0.2,0.8,0,1,0.4
					s0,0.8-0.4,1c-1.1,0.5-2.3,1-3.5,1.4C68.7,99.1,68.6,99.1,68.5,99.1z M15.2,97.3c-0.2,0-0.3-0.1-0.5-0.2c-1-0.8-1.9-1.7-2.7-2.7
					c-0.3-0.3-0.2-0.8,0.1-1c0.3-0.3,0.8-0.2,1,0.1l0,0c0.8,0.9,1.6,1.7,2.6,2.5c0.3,0.3,0.4,0.7,0.1,1
					C15.6,97.2,15.4,97.3,15.2,97.3L15.2,97.3z M75.3,96c-0.4,0-0.7-0.3-0.7-0.7c0-0.3,0.2-0.5,0.4-0.7c1.1-0.6,2.2-1.2,3.2-1.8
					c0.4-0.2,0.8-0.1,1,0.3c0.2,0.3,0.1,0.8-0.2,1c-1.1,0.6-2.2,1.3-3.3,1.8C75.5,96,75.4,96,75.3,96L75.3,96z M165.6,92.9
					L165.6,92.9c-0.5,0-0.8-0.4-0.7-0.8c0,0,0,0,0,0c0.1-0.7,0.1-1.4,0.1-2.1c0-0.5,0-1,0-1.5c0-0.4,0.3-0.8,0.7-0.8
					c0.4,0,0.8,0.3,0.8,0.7c0,0.5,0,1,0,1.6c0,0.7,0,1.5-0.1,2.2C166.3,92.6,166,92.9,165.6,92.9L165.6,92.9z M81.6,92.2
					c-0.4,0-0.7-0.3-0.7-0.7c0-0.2,0.1-0.5,0.3-0.6c1-0.7,2-1.4,2.9-2.2c0.3-0.3,0.8-0.2,1,0.1c0.3,0.3,0.2,0.8-0.1,1c0,0,0,0,0,0
					c-1,0.8-2,1.5-3,2.3C81.9,92.2,81.8,92.2,81.6,92.2L81.6,92.2z M10.3,91.8c-0.3,0-0.5-0.1-0.6-0.3c-0.7-1-1.3-2.1-1.9-3.3
					c-0.2-0.4-0.1-0.8,0.3-1c0.4-0.2,0.8-0.1,1,0.3c0,0,0,0,0,0c0.6,1.1,1.2,2.2,1.8,3.1c0.2,0.3,0.1,0.8-0.2,1
					C10.6,91.7,10.4,91.8,10.3,91.8L10.3,91.8z M87.4,87.6c-0.4,0-0.7-0.3-0.7-0.7c0-0.2,0.1-0.4,0.2-0.5c0.9-0.8,1.7-1.7,2.5-2.6
					c0.3-0.3,0.7-0.3,1-0.1c0.3,0.3,0.3,0.7,0.1,1c-0.8,0.9-1.7,1.8-2.6,2.7C87.8,87.5,87.6,87.6,87.4,87.6L87.4,87.6z M165.1,85.5
					c-0.3,0-0.6-0.2-0.7-0.6c-0.3-1.2-0.6-2.3-1.1-3.4c-0.2-0.4,0-0.8,0.4-1c0.4-0.2,0.8,0,1,0.4c0.5,1.2,0.9,2.4,1.2,3.7
					c0.1,0.4-0.2,0.8-0.6,0.9C165.2,85.5,165.2,85.5,165.1,85.5L165.1,85.5z M6.8,85.2c-0.3,0-0.6-0.2-0.7-0.4
					c-0.5-1.1-1-2.3-1.4-3.5c-0.1-0.4,0.1-0.8,0.4-0.9c0.4-0.1,0.8,0.1,0.9,0.4l0,0C6.6,82,7,83.1,7.5,84.2c0.2,0.4,0,0.8-0.4,1
					c0,0,0,0,0,0C7,85.2,6.9,85.2,6.8,85.2L6.8,85.2z M92.4,82.1c-0.4,0-0.7-0.3-0.7-0.7c0-0.2,0.1-0.3,0.1-0.4c0.7-1,1.4-2,2.1-3
					c0.2-0.3,0.7-0.5,1-0.2c0.3,0.2,0.5,0.7,0.2,1c-0.7,1.1-1.4,2.1-2.1,3.1C92.8,82,92.6,82.1,92.4,82.1L92.4,82.1z M162.3,78.7
					c-0.2,0-0.5-0.1-0.6-0.3c-0.5-0.7-1-1.4-1.6-2.1c-0.2-0.2-0.4-0.4-0.6-0.7c-0.3-0.3-0.3-0.7-0.1-1c0.3-0.3,0.7-0.3,1-0.1
					c0,0,0,0,0,0c0.2,0.2,0.5,0.5,0.7,0.7c0.6,0.7,1.2,1.5,1.7,2.2C163.1,77.9,162.4,78.7,162.3,78.7L162.3,78.7z M4.3,78.3
					c-0.3,0-0.6-0.2-0.7-0.5c-0.4-1.2-0.7-2.4-1-3.6c-0.1-0.4,0.1-0.8,0.5-0.9c0.4-0.1,0.8,0.1,0.9,0.5c0,0,0,0,0,0
					c0.3,1.2,0.6,2.4,1,3.5c0.1,0.4-0.1,0.8-0.5,0.9c0,0,0,0,0,0C4.4,78.3,4.4,78.3,4.3,78.3L4.3,78.3z M132.9,77.1
					c-0.4,0-0.7-0.3-0.7-0.7c0-0.4,0.3-0.7,0.7-0.7c1.1,0,2.3-0.3,3.3-0.8c0.4-0.2,0.8,0,1,0.4c0.2,0.4,0,0.8-0.4,1l0,0
					C135.6,76.8,134.3,77.1,132.9,77.1L132.9,77.1z M129.3,76.6c-0.1,0-0.2,0-0.2,0c-1.2-0.4-2.4-1-3.5-1.7c-0.3-0.2-0.4-0.7-0.2-1
					s0.7-0.4,1-0.2c1,0.6,2,1.1,3.2,1.5c0.4,0.1,0.6,0.5,0.5,0.9C129.9,76.4,129.6,76.6,129.3,76.6L129.3,76.6z M96.2,75.8
					c-0.4,0-0.7-0.3-0.7-0.7c0-0.1,0-0.2,0.1-0.3c0.5-1.1,1-2.2,1.5-3.3c0.1-0.4,0.6-0.6,1-0.4c0.4,0.1,0.6,0.6,0.4,1
					c-0.4,1.2-1,2.3-1.5,3.5C96.8,75.6,96.5,75.8,96.2,75.8L96.2,75.8z M139.6,74.3c-0.4,0-0.7-0.3-0.7-0.7c0-0.2,0.1-0.5,0.3-0.6
					c0.4-0.3,1-0.7,1.5-1.1c0.6-0.4,1.2-0.7,1.8-0.9c0.4-0.2,0.8,0,1,0.4c0.2,0.4,0,0.8-0.4,1c-0.5,0.2-1.1,0.5-1.6,0.8
					c-0.5,0.3-1,0.7-1.4,1C139.9,74.2,139.8,74.3,139.6,74.3L139.6,74.3z M157,73.6c-0.1,0-0.3,0-0.4-0.1c-1-0.6-2.1-1.1-3.2-1.5
					c-0.4-0.1-0.6-0.5-0.5-0.9s0.5-0.6,0.9-0.5l0,0c1.2,0.4,2.4,1,3.5,1.6c0.3,0.2,0.5,0.7,0.3,1C157.5,73.5,157.2,73.6,157,73.6
					L157,73.6z M123.1,72.7c-0.2,0-0.4-0.1-0.5-0.2c-0.9-0.9-1.7-2-2.3-3.1c-0.2-0.3-0.1-0.8,0.2-1c0.3-0.2,0.8-0.1,1,0.2
					c0,0,0,0,0,0c0.6,1,1.3,2,2.1,2.8c0.3,0.3,0.3,0.8,0,1C123.5,72.6,123.3,72.7,123.1,72.7L123.1,72.7z M146.3,71.3
					c-0.4,0-0.7-0.3-0.7-0.7c0-0.4,0.3-0.7,0.6-0.7c1.3-0.2,2.6-0.2,3.9-0.1c0.4,0,0.7,0.4,0.7,0.8c0,0.4-0.4,0.7-0.8,0.7
					c-1.2-0.1-2.4-0.1-3.5,0C146.4,71.3,146.3,71.3,146.3,71.3L146.3,71.3z M2.5,71.1c-0.3,0-0.7-0.2-0.7-0.6
					c-0.3-1.2-0.5-2.4-0.7-3.7C1,66.4,1.3,66,1.7,66c0.4-0.1,0.8,0.2,0.8,0.6c0.2,1.2,0.4,2.4,0.7,3.6C3.3,70.6,3,71,2.6,71.1
					C2.6,71.1,2.5,71.1,2.5,71.1L2.5,71.1z M98.7,68.9c-0.4-0.1-0.6-0.5-0.5-0.9c0.3-1.2,0.6-2.3,0.8-3.5c0.1-0.4,0.5-0.7,0.9-0.6
					c0.4,0.1,0.7,0.5,0.6,0.9c-0.2,1.2-0.5,2.5-0.9,3.7C99.5,68.7,98.7,68.9,98.7,68.9L98.7,68.9z M119.3,66.4
					c-0.3,0-0.6-0.2-0.7-0.5c-0.4-1.2-0.7-2.4-0.9-3.7c-0.1-0.4,0.2-0.8,0.6-0.9c0.4-0.1,0.8,0.2,0.9,0.6l0,0
					c0.2,1.2,0.5,2.3,0.9,3.5c0.1,0.4-0.1,0.8-0.5,0.9C119.5,66.3,119.4,66.4,119.3,66.4L119.3,66.4z M1.3,63.8
					c-0.4,0-0.7-0.3-0.7-0.7c-0.1-1.3-0.3-2.5-0.4-3.7c0-0.4,0.3-0.8,0.7-0.8c0.4,0,0.8,0.3,0.8,0.7c0.1,1.2,0.2,2.4,0.4,3.7
					C2.1,63.3,1.8,63.7,1.3,63.8C1.3,63.8,1.3,63.8,1.3,63.8L1.3,63.8z M100.2,61.6C100.2,61.6,100.2,61.6,100.2,61.6
					c-0.5,0-0.8-0.4-0.7-0.8c0.1-1.2,0.2-2.4,0.2-3.6c0-0.4,0.3-0.7,0.8-0.7c0.4,0,0.7,0.3,0.7,0.8c0,1.3-0.1,2.5-0.2,3.8
					C100.9,61.3,100.6,61.6,100.2,61.6L100.2,61.6z M117.9,59.1c-0.4,0-0.7-0.3-0.7-0.7c-0.1-1.1-0.1-2.4-0.1-3.8
					c0-0.4,0.3-0.7,0.7-0.7h0c0.4,0,0.7,0.3,0.7,0.7c0,1.3,0.1,2.5,0.1,3.7C118.7,58.7,118.4,59.1,117.9,59.1
					C118,59.1,118,59.1,117.9,59.1L117.9,59.1z M77.1,56.9c-0.6,0-1.3-0.1-1.9-0.2c-0.4-0.1-0.7-0.5-0.6-0.9
					c0.1-0.4,0.5-0.7,0.9-0.6c0,0,0,0,0,0c1.1,0.3,2.2,0.2,3.3,0l0.4,1.4h0C78.5,56.8,77.8,56.9,77.1,56.9L77.1,56.9z M0.7,56.4
					C0.3,56.4,0,56,0,55.6c0-0.3,0-0.5,0-0.8c0-1.1,0-2.1,0.1-3c0-0.4,0.4-0.7,0.8-0.7c0.4,0,0.7,0.4,0.7,0.8
					c-0.1,0.9-0.1,1.8-0.1,2.9c0,0.3,0,0.5,0,0.8C1.5,56,1.2,56.4,0.7,56.4C0.7,56.4,0.7,56.4,0.7,56.4L0.7,56.4z M72,55.2
					c-0.1,0-0.3,0-0.4-0.1c-1.1-0.7-2.1-1.5-3-2.4c-0.3-0.3-0.3-0.8,0-1c0.3-0.3,0.7-0.3,1,0c0.9,0.8,1.8,1.6,2.8,2.2
					c0.3,0.2,0.4,0.7,0.2,1C72.5,55.1,72.2,55.2,72,55.2L72,55.2z M82.2,54.8c-0.4,0-0.7-0.3-0.7-0.7c0-0.2,0.1-0.4,0.2-0.5
					c0.5-0.5,1-1,1.4-1.6c0.3-0.4,0.5-0.7,0.7-1.1c0.2-0.4,0.6-0.5,1-0.3c0.4,0.2,0.5,0.6,0.3,1l0,0c-0.2,0.4-0.5,0.9-0.8,1.3
					c-0.5,0.7-1,1.3-1.6,1.8C82.6,54.7,82.4,54.8,82.2,54.8L82.2,54.8z M100.4,54.2c-0.4,0-0.7-0.3-0.7-0.7
					c-0.1-1.2-0.2-2.4-0.3-3.6c0-0.4,0.2-0.8,0.6-0.8c0.4,0,0.8,0.2,0.8,0.6c0.1,1.3,0.3,2.5,0.3,3.7
					C101.2,53.9,100.9,54.2,100.4,54.2L100.4,54.2z M117.8,51.7L117.8,51.7c-0.4,0-0.7-0.3-0.7-0.8l0-1.3c0-0.6,0-1.3,0-1.9l0-0.5
					c0-0.4,0.3-0.7,0.7-0.7h0c0.4,0,0.7,0.3,0.7,0.7l0,0.5c0,0.6,0,1.3,0,1.9C118.6,51.4,118.2,51.7,117.8,51.7L117.8,51.7z
					 M66.5,50.3c-0.2,0-0.4-0.1-0.5-0.2l-0.5-0.5c-0.7-0.7-1.3-1.5-2-2.2c-0.3-0.3-0.2-0.8,0.1-1c0.3-0.3,0.8-0.2,1,0.1
					c0.7,0.7,1.3,1.5,2,2.2l0.5,0.5c0.3,0.3,0.2,0.8-0.1,1C66.9,50.2,66.7,50.3,66.5,50.3L66.5,50.3z M1.3,49c0,0-0.1,0-0.1,0
					c-0.4-0.1-0.7-0.5-0.6-0.9v0c0.2-1.2,0.5-2.5,0.9-3.7c0.1-0.4,0.5-0.6,0.9-0.5c0.4,0.1,0.6,0.5,0.5,0.9l0,0
					c-0.4,1.2-0.6,2.3-0.9,3.5C2,48.7,1.7,49,1.3,49z M85.8,48.5c-0.4,0-0.7-0.3-0.7-0.7c0-0.1,0-0.1,0-0.2c0.3-1.2,0.5-2.3,0.7-3.5
					c0-0.4,0.4-0.7,0.8-0.7c0.4,0,0.7,0.4,0.7,0.8c0,0,0,0,0,0c-0.2,1.3-0.4,2.5-0.7,3.7C86.4,48.2,86.1,48.5,85.8,48.5L85.8,48.5z
					 M99.6,46.9c-0.4,0-0.7-0.3-0.7-0.6c-0.2-1.2-0.5-2.4-0.7-3.6c-0.1-0.4,0.2-0.8,0.6-0.9c0.4-0.1,0.8,0.2,0.9,0.6l0,0
					c0.3,1.2,0.5,2.5,0.7,3.7c0.1,0.4-0.2,0.8-0.6,0.9C99.7,46.9,99.6,46.9,99.6,46.9L99.6,46.9z M61.5,44.8c-0.2,0-0.4-0.1-0.5-0.2
					c-0.9-0.9-1.7-1.8-2.6-2.6c-0.3-0.3-0.3-0.7,0-1c0.3-0.3,0.7-0.3,1,0c0,0,0,0,0,0c0.8,0.8,1.7,1.7,2.6,2.7c0.3,0.3,0.3,0.8,0,1
					C61.9,44.7,61.7,44.8,61.5,44.8L61.5,44.8z M117.9,44.3c-0.4,0-0.7-0.3-0.7-0.7c0-1.3-0.1-2.5-0.3-3.6c0-0.4,0.2-0.8,0.6-0.8
					c0.4,0,0.8,0.2,0.8,0.6l0,0c0.1,1.2,0.2,2.4,0.3,3.8C118.6,43.9,118.3,44.3,117.9,44.3L117.9,44.3z M3.5,41.9
					c-0.4,0-0.7-0.3-0.7-0.7c0-0.1,0-0.2,0.1-0.3c0.5-1.2,1.1-2.3,1.7-3.4c0.2-0.4,0.7-0.5,1-0.3c0.4,0.2,0.5,0.7,0.3,1l0,0
					c-0.6,1-1.2,2.1-1.6,3.2C4.1,41.7,3.8,41.9,3.5,41.9L3.5,41.9z M86.9,41.1C86.9,41.1,86.8,41.1,86.9,41.1
					c-0.5,0-0.8-0.4-0.7-0.8c0.1-1.1,0.2-2.5,0.4-3.7c0.1-0.4,0.4-0.7,0.8-0.6c0.4,0.1,0.7,0.4,0.6,0.8l0,0
					c-0.2,1.2-0.3,2.5-0.4,3.7C87.6,40.8,87.3,41.1,86.9,41.1L86.9,41.1z M98.1,39.6c-0.4,0-0.7-0.3-0.7-0.6
					c-0.2-1.2-0.4-2.5-0.6-3.7c-0.1-0.4,0.2-0.8,0.6-0.8c0.4-0.1,0.8,0.2,0.8,0.6c0.1,0.4,0.5,2.8,0.6,3.6c0.1,0.4-0.2,0.8-0.6,0.9
					C98.1,39.6,98.1,39.6,98.1,39.6L98.1,39.6z M56.3,39.5c-0.2,0-0.4-0.1-0.5-0.2c-0.9-0.9-1.9-1.7-2.8-2.4c-0.3-0.3-0.4-0.7-0.1-1
					c0.3-0.3,0.7-0.4,1-0.1c0,0,0,0,0,0c0.9,0.8,1.9,1.6,2.8,2.5c0.3,0.3,0.3,0.7,0,1C56.7,39.4,56.5,39.5,56.3,39.5L56.3,39.5z
					 M117,36.9c-0.3,0-0.6-0.2-0.7-0.6c-0.3-1.2-0.6-2.3-1.1-3.4c-0.2-0.4,0-0.8,0.4-1s0.8,0,1,0.4c0,0,0,0,0,0
					c0.5,1.2,0.9,2.4,1.2,3.6c0.1,0.4-0.1,0.8-0.5,0.9C117.1,36.9,117,36.9,117,36.9L117,36.9z M7.3,35.5c-0.4,0-0.7-0.3-0.7-0.7
					c0-0.2,0.1-0.3,0.2-0.5c0.8-1,1.6-1.9,2.6-2.8c0.3-0.3,0.8-0.3,1,0c0.3,0.3,0.3,0.8,0,1c-0.9,0.8-1.7,1.7-2.4,2.7
					C7.7,35.4,7.5,35.6,7.3,35.5L7.3,35.5z M50.6,34.8c-0.2,0-0.3-0.1-0.4-0.1c-1-0.7-2-1.4-3-2.1c-0.3-0.2-0.4-0.7-0.2-1
					c0.2-0.3,0.7-0.4,1-0.2c1,0.7,2.1,1.4,3.1,2.1c0.3,0.2,0.4,0.7,0.2,1C51.1,34.7,50.8,34.8,50.6,34.8L50.6,34.8z M88,33.8
					c-0.1,0-0.1,0-0.2,0c-0.4-0.1-0.6-0.5-0.5-0.9c0,0,0,0,0,0c0.3-1.2,0.8-2.5,1.4-3.6c0.2-0.4,0.6-0.5,1-0.3s0.5,0.6,0.3,1
					c-0.6,1-1,2.1-1.3,3.3C88.6,33.6,88.3,33.8,88,33.8L88,33.8z M97,32.3c-0.4,0-0.7-0.3-0.7-0.7c0-0.4-0.1-0.9-0.1-1.6
					c0-0.5-0.1-1.3-0.1-2.1c0-0.4,0.3-0.7,0.7-0.8c0,0,0,0,0,0c0.4,0,0.9,3.1,1,4.4C97.8,31.9,97.5,32.2,97,32.3
					C97,32.3,97,32.3,97,32.3L97,32.3z M44.4,30.8c-0.1,0-0.2,0-0.3-0.1c-0.7-0.4-1.4-0.7-2-1c-0.4-0.2-0.8-0.4-1.3-0.6
					c-0.4-0.2-0.5-0.6-0.4-1s0.6-0.5,1-0.4c0.4,0.2,0.9,0.4,1.3,0.6c0.7,0.3,1.4,0.7,2.1,1.1c0.4,0.2,0.5,0.6,0.3,1
					C44.9,30.6,44.6,30.8,44.4,30.8L44.4,30.8z M12.6,30.5c-0.4,0-0.7-0.3-0.7-0.7c0-0.2,0.1-0.5,0.3-0.6c1.1-0.7,2.2-1.3,3.3-1.9
					c0.4-0.2,0.8,0,1,0.4c0.2,0.4,0,0.8-0.4,1c-1.1,0.5-2.1,1.1-3.1,1.8C12.9,30.4,12.8,30.5,12.6,30.5L12.6,30.5z M114.1,30.2
					c-0.2,0-0.5-0.1-0.6-0.3c-0.2-0.4-0.5-0.7-0.8-1c-0.5-0.6-1-1.1-1.5-1.6c-0.3-0.3-0.3-0.7,0-1c0.3-0.3,0.7-0.3,1-0.1
					c0.6,0.6,1.2,1.2,1.7,1.8c0.3,0.4,0.6,0.7,0.8,1.1c0.2,0.3,0.1,0.8-0.2,1C114.4,30.1,114.2,30.2,114.1,30.2L114.1,30.2z
					 M37.6,27.9c-0.1,0-0.1,0-0.2,0c-1.2-0.4-2.3-0.7-3.5-0.9c-0.4-0.1-0.7-0.5-0.6-0.9s0.5-0.7,0.9-0.6c0,0,0,0,0,0
					c1.2,0.3,2.5,0.6,3.7,0.9c0.4,0.1,0.6,0.5,0.5,0.9C38.2,27.7,37.9,27.9,37.6,27.9L37.6,27.9z M91.6,27.4c-0.4,0-0.7-0.3-0.7-0.7
					c0-0.2,0.1-0.4,0.2-0.5c0.9-0.9,2-1.7,3.1-2.4c0.4-0.2,0.8-0.1,1,0.3c0.2,0.4,0.1,0.8-0.3,1l0,0c-1,0.6-2,1.3-2.8,2.1
					C91.9,27.3,91.8,27.4,91.6,27.4L91.6,27.4z M19.3,27.4c-0.4,0-0.7-0.3-0.7-0.7c0-0.3,0.2-0.6,0.5-0.7c1.2-0.4,2.5-0.6,3.7-0.8
					c0.4-0.1,0.8,0.2,0.9,0.6c0.1,0.4-0.2,0.8-0.6,0.9c0,0,0,0,0,0c-1.2,0.2-2.4,0.4-3.5,0.8C19.4,27.3,19.4,27.4,19.3,27.4
					L19.3,27.4z M30.3,26.4C30.3,26.4,30.3,26.4,30.3,26.4c-1.3-0.1-2.5-0.2-3.7-0.1h0c-0.4,0-0.7-0.3-0.7-0.7
					c0-0.4,0.3-0.7,0.7-0.7c1.3,0,2.5,0,3.8,0.1c0.4,0,0.7,0.4,0.7,0.8C31,26.1,30.7,26.4,30.3,26.4L30.3,26.4z M108.7,25.2
					c-0.1,0-0.2,0-0.4-0.1c-1-0.6-2.1-1-3.3-1.3c-0.4-0.1-0.6-0.5-0.5-0.9c0.1-0.4,0.5-0.6,0.9-0.5c1.2,0.3,2.5,0.8,3.6,1.5
					c0.4,0.2,0.5,0.6,0.3,1C109.2,25.1,108.9,25.2,108.7,25.2L108.7,25.2z M96.7,24.9L96.7,24.9c-0.4,0-0.8-0.4-0.7-0.8
					c0-1.3,0.1-2.5,0.3-3.8c0-0.4,0.4-0.7,0.8-0.7s0.7,0.4,0.7,0.8l0,0c-0.1,0.6-0.1,1.2-0.2,1.9c0.1,0,0.1-0.1,0.2-0.1
					c1.1-0.3,2.2-0.5,3.3-0.5c0.1,0,0.3,0,0.4,0h0.1c0.4,0,0.7,0.3,0.7,0.7c0,0.4-0.3,0.7-0.7,0.7l0,0h-0.1c-0.1,0-0.2,0-0.4,0
					c-1,0-2,0.2-3,0.4c-0.2,0.1-0.4,0-0.6-0.1c0,0.2,0,0.4,0,0.5C97.5,24.6,97.1,24.9,96.7,24.9L96.7,24.9z M145.4,20.3
					c-1.3,0-2.6-0.3-3.8-1c-0.4-0.2-0.5-0.7-0.3-1c0.2-0.3,0.6-0.5,1-0.3c0.9,0.5,2,0.8,3.1,0.8h0.1c0.4,0,0.7,0.3,0.8,0.7
					c0,0.4-0.3,0.7-0.7,0.8L145.4,20.3z M149.1,19.5c-0.4,0-0.7-0.3-0.7-0.7c0-0.3,0.2-0.6,0.5-0.7c1.1-0.5,2.2-1,3.2-1.7
					c0.4-0.2,0.8-0.1,1,0.3c0.2,0.3,0.1,0.7-0.2,1c-1.1,0.7-2.2,1.3-3.4,1.8C149.3,19.5,149.2,19.5,149.1,19.5L149.1,19.5z
					 M97.6,17.5c-0.1,0-0.1,0-0.2,0c-0.4-0.1-0.7-0.5-0.6-0.9c0,0,0,0,0,0c0.3-1.2,0.6-2.5,1-3.7c0.1-0.4,0.5-0.6,0.9-0.5
					c0.4,0.1,0.6,0.5,0.5,0.9l0,0c-0.4,1.1-0.7,2.3-0.9,3.5C98.2,17.3,97.9,17.5,97.6,17.5L97.6,17.5z M139,17.2
					c-0.2,0-0.4-0.1-0.5-0.2c-0.9-0.8-1.7-1.8-2.6-2.7c-0.3-0.3-0.2-0.8,0.1-1c0.3-0.3,0.8-0.2,1,0.1c0.9,0.9,1.7,1.9,2.5,2.7
					c0.3,0.3,0.3,0.8,0,1C139.4,17.1,139.2,17.2,139,17.2L139,17.2z M134,11.8c-0.2,0-0.4-0.1-0.5-0.2c-0.9-1-1.8-1.8-2.6-2.6
					c-0.3-0.3-0.3-0.7-0.1-1c0.3-0.3,0.7-0.3,1-0.1c0.9,0.8,1.7,1.6,2.7,2.6c0.3,0.3,0.3,0.8,0,1C134.3,11.7,134.2,11.8,134,11.8
					L134,11.8z M100,10.6c-0.1,0-0.2,0-0.3-0.1c-0.4-0.2-0.5-0.6-0.3-1c0,0,0,0,0,0c0.6-1.1,1.3-2.2,2-3.2c0.3-0.3,0.7-0.4,1-0.1
					c0.3,0.2,0.4,0.7,0.1,1c-0.7,0.9-1.4,2-1.9,3C100.5,10.4,100.2,10.6,100,10.6L100,10.6z M128.4,6.9c-0.2,0-0.3,0-0.4-0.1
					c-1-0.7-2-1.4-3-1.9c-0.4-0.2-0.5-0.6-0.3-1c0.2-0.4,0.6-0.5,1-0.3c1.1,0.6,2.2,1.3,3.2,2c0.3,0.2,0.4,0.7,0.2,1
					C128.9,6.7,128.7,6.9,128.4,6.9L128.4,6.9z M104.5,4.8c-0.4,0-0.7-0.3-0.7-0.7c0-0.2,0.1-0.4,0.3-0.6c1-0.8,2.1-1.5,3.3-2.1
					c0.4-0.2,0.8,0,1,0.3c0.2,0.4,0,0.8-0.3,1c0,0,0,0,0,0c-1.1,0.5-2.1,1.1-3,1.9C104.8,4.7,104.7,4.8,104.5,4.8L104.5,4.8z
					 M122,3.3c-0.1,0-0.2,0-0.3-0.1c-0.4-0.2-0.8-0.3-1.2-0.5c-0.7-0.3-1.5-0.5-2.2-0.7c-0.4-0.1-0.6-0.5-0.5-0.9
					c0.1-0.4,0.5-0.6,0.9-0.5c0.8,0.2,1.6,0.4,2.4,0.7c0.4,0.2,0.8,0.3,1.2,0.5c0.4,0.2,0.6,0.6,0.4,1C122.6,3.1,122.3,3.3,122,3.3
					L122,3.3z M111.1,1.7c-0.4,0-0.7-0.3-0.7-0.7c0-0.4,0.3-0.7,0.6-0.7c1.3-0.2,2.6-0.3,3.9-0.2c0.4,0,0.7,0.4,0.7,0.8
					c0,0.4-0.4,0.7-0.8,0.7c0,0,0,0,0,0c-1.2-0.1-2.4,0-3.5,0.2C111.2,1.7,111.2,1.7,111.1,1.7L111.1,1.7z"/>
			</g>
			<g id="Group_511" transform="translate(567.08 153.557)">
				<path id="Path_634" class="st7" d="M0.7,2.6C0.3,2.6,0,2.3,0,1.9c0-0.2,0.1-0.4,0.3-0.6C0.7,1,1.2,0.6,1.7,0.2
					C2-0.1,2.5,0,2.7,0.3C3,0.6,3,1,2.6,1.3c-0.5,0.4-1,0.8-1.5,1.2C1.1,2.6,0.9,2.6,0.7,2.6z"/>
			</g>
		</g>
		<g id="Group_515" transform="matrix(0.883, 0.469, -0.469, 0.883, 254.051, -267.723)">
			<path id="Path_599" class="st7" d="M201.3,397.9c-0.9-0.9-1.7-1.7-2.5-2.6c-0.2-0.2-0.5-0.3-0.8-0.1c-0.2-0.2-0.4-0.2-0.6-0.2
				c-6.7,2-12.7,5.9-17.3,11.2c-2.1,2.5-3.9,5.2-5.3,8.2c-0.8,1.8-2.2,3.8-0.7,5.5c0.1,0.1,0.2,0.1,0.3,0c0,0,0.1-0.1,0.1-0.1
				c0.4-5.4,5-11.3,8.8-14.9c4-3.9,8.8-6.7,14-8.4c-0.5,5.8-4.2,10.1-8.2,14.2c-4.3,4.3-8.7,7.8-14.5,9.8c-0.4-0.3-1,0.1-0.7,0.6
				c0.4,0.6,0.9,1.2,1.4,1.7c-3.7-0.5-7.7,4.1-8.9,7c-1.9,4.6-1.1,10,2.3,13.7c8.1,9.5,22.2,4.2,26.4-6.1c4.3,1.4,9,1.1,13-1
				c1.4,2.6,2.2,5.5,2.3,8.5c0,0.1,0,0.2,0,0.3c-3.7,3.3-7.6,11.2-1.4,14.2c2.5,2.9,5.2,5.6,8.1,8.2c1.6,1.4,3.2,2.5,5.4,2.1
				c2.6-0.5,5.1-2.8,7.2-4.4c3.1-2.3,5.9-5,8.4-8c3.4-4,8.5-10,8.7-15.5c0.2-5.8-8.5-10.7-12.8-13c-0.1-0.1-0.3-0.1-0.5-0.1
				c-3.5-2.6-8.7,0.9-11.6,3.7c-0.1,0.1-0.1,0.2-0.2,0.3c-2.6-0.3-5.1-1.5-6.8-3.5c0,0,0,0,0,0c1.5-3.3,2-6.9,1.3-10.5
				c0.1,0,0.2,0,0.3,0c10.7-2,12.9-18.2,6.4-25.4C216.3,386,203.3,387.8,201.3,397.9z M204,400.6c0.2,0,0.4,0,0.5-0.2
				c1.5-2,3.6-3.6,5.9-4.6c3.8-1.5,7.5,0.8,9.3,4.2c3,5.5,0,11.4-5.1,14.1C212.3,409.1,208.1,404.7,204,400.6L204,400.6z
				 M191.3,435.9c0,0-0.1,0-0.1,0.1c-4.3,4.3-10,9-16.1,4.8c-3.6-2.3-4.6-7.2-2.3-10.8c1.3-2,3.5-3.3,5.9-3.5
				C182.3,430.4,186.5,433.6,191.3,435.9L191.3,435.9z M171.3,444.1c-3.5-2.8-5.1-7.2-4.3-11.6c0.8-3.8,4.9-9.3,9.4-8.4
				c0.3,0.4,0.7,0.8,1,1.2c-6.7,0.9-9.5,9.1-5.5,14.5c2.1,2.8,5.6,4.3,9.1,4c4.7-0.3,8-3.6,10.8-7.1c0.1-0.1,0.1-0.3,0.1-0.5
				c0.6,0.3,1.1,0.5,1.7,0.7C190.2,445.5,179.2,450.6,171.3,444.1L171.3,444.1z M235.3,431.2c4.7,2.7,10.9,7.1,9.6,12.6
				c-1.2,5-5.9,10.5-9.3,14.2c-3.2,3.5-7.9,8.5-12.5,10c-4.2,1.3-9.1-4.2-12.6-7.9c5.9,1.2,12.8-5.8,16.1-9.5
				C230.5,446.2,238.2,437.6,235.3,431.2L235.3,431.2z M228.3,429.4c5.7-1.7,6.9,4.7,5.2,8.5c-2,4.3-4.6,8.2-7.8,11.7
				c-2.8,3.3-6.2,6.1-10.1,8.1c-3.9,1.9-8.4,0.8-8.5-4.1c-0.1-2.7,1.5-4.9,3.1-6.9c-0.1,0.9-0.3,1.7-0.5,2.6
				c-0.2,0.7-0.4,1.1-0.1,1.8c0.1,0.2,0.3,0.3,0.5,0.3c2.1,5.1,11.1-4.3,12.9-6c2.6-2.5,11.6-10.4,6.5-14.1
				c-0.2-0.2-0.5-0.1-0.7,0.1c0,0,0,0,0,0.1c-0.1-0.3-0.4-0.4-0.7-0.3c-0.1,0-0.1,0-0.1,0.1c-1.3,0.9-2.8,1.4-4.4,1.6
				C224.8,431.2,226.5,430.1,228.3,429.4L228.3,429.4z M229.1,432.5c4.2,4.1-15.1,21.4-18.2,18.6C219.3,448,225.8,440.7,229.1,432.5
				L229.1,432.5z M227.5,432.9c-3.6,7.7-9.2,13-16.5,17.2c0-0.1-0.1-0.1-0.1-0.2c0.3-1,0.6-2,0.7-3c0.2-1.3,0.2-2.7,0-4.1
				c-0.3-2.5-1.2-5-2.7-7c0.6-0.4,1.2-0.8,1.8-1.2c1.6-1.2,2.8-2.8,3.8-4.5C217.6,434.1,223,435.2,227.5,432.9L227.5,432.9z
				 M209.8,433.6c-5.4,4.2-13,3.6-18.8,0.9c-6.4-3-10.6-8.4-15.5-13.3c6.3-1.3,11.2-6,15.6-10.4c3.7-3.8,7.3-8.1,7.7-13.5
				c4.7,4.9,10.1,9.8,13.6,15.5C216.4,419.3,216.2,428.5,209.8,433.6L209.8,433.6z M222.5,395.1c5.1,6.7,2.9,20.4-6.4,22.3
				c-0.1,0-0.1,0-0.2,0.1c0-0.1-0.1-0.3-0.1-0.4c-0.2-0.7-0.5-1.4-0.7-2c5.8-2.1,8.7-8.5,6.6-14.3c-0.3-0.8-0.7-1.6-1.2-2.4
				c-1.7-2.5-4.1-5-7.3-4.8c-3.9,0.3-7.5,3-9.7,6c-0.1,0.1-0.1,0.2-0.1,0.4l-1.3-1.3C205.2,389.6,216.3,387,222.5,395.1L222.5,395.1
				z"/>
			<path id="Path_600" class="st7" d="M207.6,426.3c0-0.1-0.1-0.1-0.1-0.2c-4.1-4-8.3-8.5-12.9-11.9c0,0-0.1,0-0.1,0l0,0
				c0.5-0.6-0.3-1.4-0.8-0.8c-1.1,1.2-2.3,2.3-3.6,3.3c-0.2,0.2-0.3,0.5-0.1,0.7c0.1,0.1,0.1,0.1,0.2,0.2c0.3,0.9,0.4,1.8,0.6,2.7
				c0,1-0.1,2.1-0.4,3.1c0.2,0.3,0.4,0.6,0.7,0.9c0.5,0,1.1-0.1,1.6-0.2c0.5,0,1-0.1,1.5-0.2c0.3-0.1,0.4-0.4,0.3-0.6
				c0,0,0-0.1-0.1-0.1c0.3-0.6,0.6-1.2,0.6-1.9c2.7,3.3,6,6,8.6,9.4c0.2,0.3,0.5,0.4,0.8,0.2c0,0,0.1-0.1,0.1-0.1l3.5-3.3
				c0.2-0.2,0.2-0.6,0-0.8C208,426.3,207.8,426.2,207.6,426.3z M193.5,422.8c-0.3,0.1-0.7,0.1-1,0.2c-0.5,0.1-1,0.2-1.5,0.3
				c0.9-2,0.9-4.3,0.1-6.3c1.1-0.7,2.2-1.6,3-2.6c0,0,0,0,0,0.1c3.1,4.7,8.1,8.9,12.5,12.4c0,0,0.1,0,0.1,0.1l-2.4,2.4
				c-2.5-3.3-5.5-7.1-9.2-9c0,0,0-0.1,0-0.1c-0.1-0.6-1-0.5-1,0.1C194.1,421.1,193.9,422,193.5,422.8L193.5,422.8z"/>
		</g>
		<path id="Path_638" class="st13" d="M328.6,839.3l47.4-85.9l356.3,1.9"/>
		<path id="Path_639" class="st13" d="M338.8,852.1l47.4-85.9l356.3,1.9"/>
		<path id="Path_641" class="st13" d="M349.1,866l47.4-85.9l356.3,1.9"/>
		<path id="Path_642" class="st13" d="M359.3,879.8l47.4-85.9l356.3,1.9"/>
		<path id="Path_640" class="st13" d="M318.4,827.5l47.4-85.9l356.3,1.9"/>
		<circle id="Ellipse_237" class="st7" cx="386.1" cy="765.7" r="3"/>
		<circle id="Ellipse_239" class="st7" cx="407.4" cy="793.7" r="3"/>
		<circle id="Ellipse_238" class="st7" cx="376" cy="754.5" r="3"/>
		<circle id="Ellipse_240" class="st7" cx="396.4" cy="780.5" r="3"/>
	</g>
</g>
</svg>
